<svg width="32" height="32" viewBox="0 0 32 32" fill="none" xmlns="http://www.w3.org/2000/svg">
<g id="Icon - Like">
<path id="Vector" d="M5.56488 21.6247L5.56484 21.6245C5.46748 21.1156 5.55019 20.588 5.79913 20.134C6.04813 19.6798 6.44804 19.3276 6.92987 19.1407L6.93038 19.1405L7.57093 18.8929L5.56488 21.6247ZM5.56488 21.6247L6.11254 24.4809L6.11255 24.4809C6.21649 25.0228 6.4717 25.5241 6.84884 25.925C7.22604 26.326 7.70948 26.6099 8.24236 26.7423L8.24243 26.7423L18.5574 29.3027C19.8122 29.6142 21.1375 29.4112 22.2445 28.739C23.3512 28.0668 24.1494 26.9806 24.4676 25.7179L24.4676 25.7178L26.3811 18.1188L26.3811 18.1187C26.4885 17.6919 26.4981 17.2461 26.4093 16.8151C26.3205 16.384 26.1355 15.9787 25.868 15.6303C25.6005 15.2818 25.2575 14.9994 24.8649 14.8049C24.4722 14.6103 24.0405 14.5091 23.6028 14.5091C23.6028 14.5091 23.6028 14.5091 23.6027 14.5091L19.7495 14.5091C19.7493 14.5091 19.7491 14.5091 19.7489 14.5091C19.6688 14.509 19.5897 14.4896 19.5178 14.4523C19.4458 14.4149 19.3829 14.3604 19.3347 14.2928C19.2866 14.2252 19.2546 14.1465 19.242 14.0631C19.2293 13.9797 19.2364 13.8945 19.2626 13.8147C20.1532 11.1011 20.618 9.04813 20.618 7.75107C20.618 6.52459 20.3937 5.50515 19.9726 4.77341C19.5452 4.03067 18.8902 3.55564 18.0802 3.55564C17.9479 3.55564 17.854 3.60734 17.8172 3.62993C17.7733 3.6568 17.7426 3.68486 17.7261 3.70104C17.6925 3.73388 17.6699 3.76505 17.6587 3.78106C17.6341 3.81629 17.6148 3.85193 17.6007 3.87991C17.5709 3.9391 17.5382 4.01654 17.5018 4.11519C17.4284 4.31436 17.3281 4.63318 17.1973 5.13612L17.1964 5.13985C17.129 5.40741 17.0584 5.67411 16.9845 5.93989L16.9845 5.94012C16.8471 6.43505 16.6096 7.27545 16.2691 8.45898L16.2686 8.46066C16.2191 8.63489 16.1452 8.80126 16.0502 8.95084L16.0495 8.95196L12.1726 15.0941L12.1726 15.0942M5.56488 21.6247L12.1726 15.0942M17.6813 5.26189C17.6129 5.53343 17.5412 5.80409 17.4663 6.07382C17.3283 6.57084 17.0903 7.41289 16.7496 8.59723C16.6874 8.8163 16.5941 9.02716 16.4724 9.21884L17.6813 5.26189ZM17.6813 5.26189C17.9382 4.27334 18.064 4.05564 18.0802 4.05564C19.2539 4.05564 20.118 5.40292 20.118 7.75107C20.118 8.96144 19.6772 10.9481 18.7874 13.6591L17.6813 5.26189ZM12.1726 15.0942C11.079 16.8272 9.46588 18.1581 7.57135 18.8927L12.1726 15.0942ZM15.998 5.65214L15.9981 5.65145C16.0523 5.45596 16.1034 5.26011 16.2047 4.86362C16.4541 3.90428 16.6773 3.3165 16.9585 2.96335C17.2004 2.65959 17.5089 2.50049 18.0815 2.50049C19.162 2.50049 20.0315 3.00634 20.6494 3.90519C21.2773 4.81871 21.6478 6.14863 21.6478 7.75107C21.6478 8.92092 21.3284 10.5882 20.6614 12.8117L20.4683 13.4554H21.1403H23.6041H23.6043C24.1967 13.4552 24.7816 13.5922 25.3144 13.856C25.8471 14.1199 26.3139 14.5038 26.6786 14.979C27.0433 15.4541 27.2963 16.0079 27.4178 16.598C27.5393 17.1881 27.526 17.7985 27.3789 18.3826L27.8637 18.5047L27.3789 18.3826L25.4654 25.9816C25.0789 27.5165 24.1099 28.8331 22.7715 29.6462C21.4332 30.4593 19.833 30.7041 18.3182 30.3284L8.00329 27.768L8.00325 27.768C7.28133 27.5889 6.62439 27.2038 6.11058 26.6575C5.59675 26.1112 5.24767 25.4266 5.10553 24.6844C5.10552 24.6843 5.10552 24.6843 5.10551 24.6843L4.55922 21.8282L4.55918 21.828C4.41439 21.0727 4.5373 20.29 4.90564 19.618C5.27389 18.9462 5.86336 18.4287 6.56923 18.1549C6.56928 18.1548 6.56933 18.1548 6.56938 18.1548L7.20885 17.907L7.2089 17.907C8.90012 17.2515 10.3379 16.0645 11.3117 14.5216L11.3118 14.5215L15.1852 8.38054C15.228 8.31339 15.2611 8.24057 15.2835 8.1643L15.2843 8.16152C15.6224 6.98377 15.8608 6.14428 15.998 5.65214Z" fill="#5E5E75" stroke="#5E5E75"/>
</g>
</svg>
